<svg xmlns="http://www.w3.org/2000/svg" viewBox="0 0 1771 2499.77"><defs><style>.cls-1{fill:#e44d26;}.cls-2{fill:#f16529;}.cls-3{fill:#ebebeb;}.cls-4{fill:#fff;}</style></defs><g id="Layer_2" data-name="Layer 2"><g id="html-icon"><g id="html-icon-group"><path id="orange-bg" class="cls-1" d="M161.17,2299,0,491.26H1771L1609.65,2298.7,884.41,2499.77Z"/><path id="orange-overlay" class="cls-2" d="M885.5,2346.08l586-162.47L1609.41,639.07H885.5Z"/><path id="five-left" class="cls-3" d="M885.5,1309.53H592.13l-20.27-227H885.5V860.79H329.55l5.31,59.48,54.49,611H885.5Zm0,575.8-1,.27-246.92-66.68L621.82,1642.1H399.26l31.07,348.12L884.49,2116.3l1-.29Z"/><path id="html-text" class="cls-4" d="M164.78,0H277.44V111.32H380.51V0H493.18V337.09H380.51V224.22H277.44V337.09H164.78ZM641.35,111.79H542.17V0h311.1V111.79H754v225.3H641.36V111.79ZM902.64,0h117.49l72.27,118.45L1164.6,0h117.53V337.09H1169.9V170l-77.52,119.85h-1.93L1012.88,170V337.09H902.63V0Zm435.55,0h112.7V225.67h158.46V337.09H1338.19Z"/><path id="five-right" class="cls-4" d="M884.74,1309.53v221.71h273L1132,1818.79l-247.27,66.73v230.66l454.51-126,3.33-37.47,52.11-583.68,5.41-59.54H884.74Zm0-448.74V1082.5h535.53l4.44-49.84,10.11-112.39,5.3-59.48Z"/></g></g></g></svg>