<svg xmlns="http://www.w3.org/2000/svg" viewBox="0 0 511.81 511.81"><defs><style>.cls-1{fill:#fff;}</style></defs><g id="Layer_2" data-name="Layer 2"><g id="Layer_1-2" data-name="Layer 1"><rect width="511.81" height="511.81"/><path class="cls-1" d="M53.94,105.39c0,1.6,91.4,226.3,92,226.3.8,0,31-74.9,31-77,0-.8-13.6-34.9-30.2-75.8l-30.1-74.2H85.24C68,104.69,53.94,105,53.94,105.39Z"/><path class="cls-1" d="M250.74,217.69l-45.5,113,15.2,37.3c8.3,20.4,15.6,37.1,16.1,37.1s49.4-118.4,57.6-139.7c.2-.5,2.5.1,5.1,1.2,10.6,4.5,32.1,12.2,48.2,17.1,21.9,6.6,30.3,10.7,37.7,18,10.2,10.2,11.1,21.3,2.7,33.8-7.1,10.7-14.6,14.2-31.9,14.9a88.05,88.05,0,0,1-21-1.2l-12.6-2.2-3-.5-11.2,25.4c-10.2,23-12,27.8-10.8,27.8.2,0,3.1.7,6.3,1.5,26,6.5,62,7.9,80.8,3a112.19,112.19,0,0,0,48-27c13.2-13,20.3-26.1,24-44.4,1.4-6.5,1.6-11.8,1.3-23.5-.4-13.2-.8-16.1-3.3-23.5-6.8-20.1-22-35.4-47-47.2-13.2-6.2-28.5-11.4-58.2-19.9-26.7-7.6-37.4-12.1-42.8-18.2-4.5-4.9-5.5-7.6-5.5-14.2,0-12.9,12-23.2,31-26.4l4.5-.7,10.2-26c5.6-14.3,10.2-26.6,10.2-27.3.1-.9-6.6-1.2-30.2-1.2h-30.3Z"/><path class="cls-1" d="M402.54,138.39c-5.3,13.7-9.6,25.2-9.6,25.8s3.8,2.5,8.5,4.3a135.26,135.26,0,0,1,16.6,8.3,74.38,74.38,0,0,0,9,4.9c1.3,0,24.1-46.1,23.5-47.6-.3-.8-3.4-3.2-6.8-5.4-7.4-4.7-28-15-30.1-15C412.74,113.69,409,122,402.54,138.39Z"/></g></g></svg>