<?xml version="1.0" standalone="no"?>
<!DOCTYPE svg PUBLIC "-//W3C//DTD SVG 20010904//EN"
 "http://www.w3.org/TR/2001/REC-SVG-20010904/DTD/svg10.dtd">
<svg version="1.0" xmlns="http://www.w3.org/2000/svg"
 width="512.000000pt" height="512.000000pt" viewBox="0 0 512.000000 512.000000"
 preserveAspectRatio="xMidYMid meet">
<g transform="translate(0.000000,512.000000) scale(0.100000,-0.100000)"
fill="#000000" stroke="none">
<path fill="#FFFFFF" d="M540 4053 c0 -16 914 -2263 920 -2263 8 0 310 749 310 770 0 8 -136
349 -302 758 l-301 742 -314 0 c-172 0 -313 -3 -313 -7z"/>
<path fill="#FFFFFF" d="M2508 2930 l-455 -1130 152 -373 c83 -204 156 -371 161 -371 6 1 494
1184 576 1397 2 5 25 -1 51 -12 106 -45 321 -122 482 -171 219 -66 303 -107
377 -180 102 -102 111 -213 27 -338 -71 -107 -146 -142 -319 -149 -82 -4 -142
0 -210 12 -52 9 -109 19 -126 22 l-30 5 -112 -254 c-102 -230 -120 -278 -108
-278 2 0 31 -7 63 -15 260 -65 620 -79 808 -30 175 46 353 146 480 270 132
130 203 261 240 444 14 65 16 118 13 235 -4 132 -8 161 -33 235 -68 201 -220
354 -470 472 -132 62 -285 114 -582 199 -267 76 -374 121 -428 182 -45 49 -55
76 -55 142 0 129 120 232 310 264 l45 7 102 260 c56 143 102 266 102 273 1 9
-66 12 -302 12 l-303 0 -456 -1130z"/>
<path fill="#FFFFFF" d="M4026 3723 c-53 -137 -96 -252 -96 -258 0 -5 38 -25 85 -43 46 -18
121 -56 166 -83 45 -27 86 -49 90 -49 13 0 241 461 235 476 -3 8 -34 32 -68
54 -74 47 -280 150 -301 150 -9 0 -46 -83 -111 -247z"/>
</g>
</svg>
